<?xml version="1.0" encoding="UTF-8" standalone="no"?>
<svg
   viewBox="74.00 57.00 350.00 350.00"
   width="514"
   height="514"
   version="1.1"
   id="svg7"
   sodipodi:docname="logo-traced.svg"
   xml:space="preserve"
   inkscape:version="1.4.2 (f4327f4, 2025-05-13)"
   xmlns:inkscape="http://www.inkscape.org/namespaces/inkscape"
   xmlns:sodipodi="http://sodipodi.sourceforge.net/DTD/sodipodi-0.dtd"
   xmlns="http://www.w3.org/2000/svg"
   xmlns:svg="http://www.w3.org/2000/svg"><defs
     id="defs7" /><sodipodi:namedview
     id="namedview7"
     pagecolor="#505050"
     bordercolor="#eeeeee"
     borderopacity="1"
     inkscape:showpageshadow="0"
     inkscape:pageopacity="0"
     inkscape:pagecheckerboard="0"
     inkscape:deskcolor="#505050"
     inkscape:zoom="1.1101852"
     inkscape:cx="203.56965"
     inkscape:cy="212.12678"
     inkscape:window-width="1920"
     inkscape:window-height="1009"
     inkscape:window-x="-8"
     inkscape:window-y="-8"
     inkscape:window-maximized="1"
     inkscape:current-layer="svg7" /><g
     id="g15"><path
       style="fill:none;fill-opacity:1;stroke:#ffffff;stroke-width:13;stroke-linecap:round;stroke-opacity:1"
       d="M 278.2751,69.577447 C 420.09666,98.201982 443.51673,254.33581 384.96654,325.89715"
       id="path11"
       sodipodi:nodetypes="cc" /><path
       style="fill:none;fill-opacity:1;stroke:#ffffff;stroke-width:13;stroke-linecap:round;stroke-opacity:1;stroke-linejoin:round"
       d="M 176.7881,82.588599 C -15.632387,183.13589 117.62316,476.60079 324.51889,380.00186 c 20.03374,-9.35369 29.61988,-16.66962 61.63957,-2.92282 6.52283,-23.96138 -21.79151,-66.66458 -97.55481,-70.97109 -75.92655,-4.31578 -128.13109,79.52625 -180.55781,12.41621"
       id="path12"
       sodipodi:nodetypes="cscsc" /><path
       style="fill:none;fill-opacity:1;stroke:#ffffff;stroke-width:13;stroke-linecap:round;stroke-linejoin:round;stroke-opacity:1"
       d="m 188.39007,335.7683 c -28.3164,-90.16268 43.84042,-141.12576 79.12236,-141.37754 14.72015,-0.10505 48.39103,2.92464 57.2717,-20.08727 -27.11826,-15.67159 -35.25432,-19.3408 -41.63123,-26.52745 -12.16681,-13.71176 -6.05028,-35.18076 -40.61991,-46.11563 -23.92648,-7.568289 -15.25067,-22.704763 -17.95517,-37.300191 -15.44828,-3.626319 -34.39941,33.553237 -45.07496,44.229341 -9.04751,9.04799 -67.22738,25.62854 -94.769207,103.28172"
       id="path13"
       sodipodi:nodetypes="cscsscsc" /><path
       style="fill:none;fill-opacity:1;stroke:#ffffff;stroke-width:13;stroke-linecap:round;stroke-linejoin:round;stroke-opacity:1"
       d="M 267.86617,194.26766 C 216.68897,161.88435 112.16605,177.42545 92.649319,282.7435"
       id="path14"
       sodipodi:nodetypes="cc" /><path
       style="fill:none;fill-opacity:1;stroke:#ffffff;stroke-width:13;stroke-linecap:round;stroke-linejoin:round;stroke-opacity:1"
       d="m 229.48327,93.214374 c 0,0 11.25206,-24.93046 28.19082,-22.335812 -0.59437,19.704952 2.38539,38.166048 2.38539,38.166048"
       id="path15"
       sodipodi:nodetypes="ccc" /></g></svg>
